<svg xmlns="http://www.w3.org/2000/svg" version="1.1" xmlns:xlink="http://www.w3.org/1999/xlink" xmlns:svgjs="http://svgjs.dev/svgjs" width="1000" height="1000" viewBox="0 0 1000 1000"><rect width="1000" height="1000" fill="#ffffff"></rect><g transform="matrix(0.7,0,0,0.7,149.57575757575756,252.55013596153847)"><svg viewBox="0 0 396 280" data-background-color="#ffffff" preserveAspectRatio="xMidYMid meet" height="707" width="1000" xmlns="http://www.w3.org/2000/svg" xmlns:xlink="http://www.w3.org/1999/xlink"><g id="tight-bounds" transform="matrix(1,0,0,1,0.2400000000000091,-0.00007692307690376765)"><svg viewBox="0 0 395.52 280" height="280" width="395.52"><g><svg viewBox="0 0 395.52 280" height="280" width="395.52"><g><svg viewBox="0 0 395.52 280" height="280" width="395.52"><g><svg viewBox="0 0 395.52 280" height="280" width="395.52"><g><svg viewBox="0 0 395.52 280" height="280" width="395.52"><g transform="matrix(1,0,0,1,151.344151572621,74.00336708925556)"><svg viewBox="0 0 92.83169685475796 131.99326582148888" height="131.99326582148888" width="92.83169685475796"><g><svg xmlns="http://www.w3.org/2000/svg" xmlns:xlink="http://www.w3.org/1999/xlink" version="1.0" x="0" y="0" viewBox="17.59719467163086 5 63.125003814697266 89.754638671875" enable-background="new 0 0 100 100" xml:space="preserve" height="131.99326582148888" width="92.83169685475796" class="icon-o-0" data-fill-palette-color="accent" id="o-0"><path d="M43.568 31.11c0 3.954 3.204 7.152 7.152 7.152 3.951 0 7.155-3.198 7.155-7.152 0-3.947-3.204-7.155-7.155-7.155C46.773 23.955 43.568 27.163 43.568 31.11z" fill="#000000" data-fill-palette-color="accent"></path><path d="M74.435 39.845h-7.535l-26.62-0.003H23.487h-5.89c0 3.344 2.605 5.998 5.89 6.2v0.042h18.167v21.678L27.839 81.577l3.825 3.832 3.462 3.463 5.887 5.883c3.253-3.253 2.912-8.18-0.339-11.431l-2.263-2.262 9.324-9.321 1.66-1.66h4.69l-2.911 2.908-8.585 8.588 3.828 3.832 3.459 3.463 5.886 5.883c3.254-3.253 2.912-8.18-0.334-11.431l-2.267-2.262 5.394-5.391 1.224-1.224V66.922v-2.535V46.084h8.871 5.785 6.287C80.722 42.607 77.908 39.845 74.435 39.845z" fill="#000000" data-fill-palette-color="accent"></path><path d="M49.315 9.554c14.76 0 26.776 12.016 26.776 26.776h4.554C80.645 19.052 66.589 5 49.315 5c-17.278 0-31.334 14.052-31.334 31.33h4.557C22.538 21.57 34.551 9.554 49.315 9.554z" fill="#000000" data-fill-palette-color="accent"></path></svg></g></svg></g><path d="M76.475 100.058L80.865 101.588C82.406 102.124 83.46 102.871 84.029 103.829 84.596 104.794 84.655 105.921 84.205 107.212V107.212C83.778 108.439 83.079 109.264 82.108 109.685 81.128 110.111 79.757 110.016 77.993 109.402V109.402L63.632 104.399C62.91 104.147 62.315 103.829 61.848 103.444 61.384 103.067 61.056 102.641 60.863 102.166 60.668 101.696 60.576 101.209 60.587 100.704 60.599 100.199 60.703 99.663 60.901 99.094V99.094L64.789 87.935C65.247 86.619 65.793 85.709 66.427 85.206 67.061 84.703 67.912 84.638 68.979 85.009V85.009C69.976 85.357 70.576 85.877 70.778 86.571 70.981 87.265 70.861 88.248 70.418 89.52V89.52L67.799 97.036 71.778 98.422 73.865 92.43C74.076 91.823 74.304 91.325 74.546 90.937 74.783 90.546 75.052 90.257 75.354 90.068 75.661 89.888 75.985 89.801 76.327 89.805 76.67 89.81 77.077 89.895 77.55 90.059V90.059C78.324 90.329 78.778 90.803 78.915 91.481 79.043 92.163 78.889 93.127 78.455 94.374V94.374ZM76.054 73.405L89.67 80.335C91.34 81.185 92.401 82.116 92.851 83.127 93.306 84.141 93.212 85.281 92.567 86.548V86.548C91.938 87.784 91.141 88.529 90.177 88.783 89.213 89.036 87.874 88.727 86.161 87.855V87.855L72.582 80.944C70.012 79.636 69.343 77.773 70.574 75.355V75.355C71.206 74.112 71.919 73.294 72.712 72.9 73.504 72.506 74.619 72.675 76.054 73.405ZM89.367 58.411L100.001 65.966C101.116 66.758 101.903 67.525 102.364 68.267 102.824 69.009 103.013 69.708 102.929 70.363 102.842 71.023 102.52 71.745 101.964 72.528V72.528C101.141 73.687 100.236 74.306 99.249 74.385 98.263 74.465 96.983 73.958 95.41 72.866V72.866L84.529 65.222 82.753 67.721C81.875 68.957 81.023 69.741 80.196 70.076 79.365 70.415 78.451 70.23 77.452 69.521V69.521C76.845 69.09 76.451 68.627 76.271 68.134 76.1 67.638 76.112 67.095 76.308 66.504 76.508 65.907 76.9 65.198 77.484 64.376V64.376L86.415 51.805C87.191 50.713 87.949 50.06 88.69 49.848 89.43 49.635 90.28 49.87 91.24 50.552V50.552C91.886 51.01 92.289 51.512 92.449 52.058 92.613 52.598 92.595 53.15 92.394 53.713 92.199 54.279 91.837 54.935 91.307 55.68V55.68ZM112.574 30.339L124.915 43.662C125.632 44.437 125.972 45.261 125.934 46.136 125.891 47.006 125.428 47.85 124.544 48.669V48.669C124.315 48.88 124.062 49.065 123.783 49.222 123.508 49.384 123.175 49.512 122.784 49.607 122.402 49.703 122.057 49.778 121.748 49.833 121.439 49.889 121.021 49.925 120.494 49.943 119.967 49.952 119.55 49.96 119.243 49.967 118.936 49.975 118.453 49.975 117.792 49.969 117.127 49.958 116.641 49.947 116.335 49.935V49.935L107.266 49.839 112.578 55.574C113.378 56.438 113.761 57.18 113.728 57.801 113.7 58.418 113.333 59.053 112.628 59.706V59.706C111.853 60.423 111.117 60.778 110.418 60.771 109.724 60.758 108.993 60.338 108.225 59.509V59.509L96.401 46.744C95.473 45.741 95.027 44.747 95.065 43.762 95.102 42.777 95.595 41.845 96.544 40.967V40.967C97.194 40.364 97.812 39.981 98.398 39.816 98.984 39.652 99.793 39.58 100.827 39.601V39.601L113.689 40.072 108.349 34.307C107.646 33.548 107.308 32.804 107.336 32.077 107.364 31.351 107.705 30.684 108.36 30.077V30.077C109.115 29.378 109.825 29.048 110.489 29.088 111.148 29.132 111.843 29.549 112.574 30.339ZM129.608 27.927L134.915 24.736C136.005 24.08 136.88 23.795 137.539 23.88 138.189 23.963 138.767 24.425 139.273 25.266V25.266C139.695 25.967 139.733 26.628 139.386 27.247 139.042 27.856 138.313 28.496 137.2 29.166V29.166L132.207 32.169 134.174 35.44 140.893 31.446C142.041 30.755 142.969 30.426 143.676 30.459 144.386 30.498 145.001 30.949 145.521 31.814V31.814C146.114 32.799 146.236 33.666 145.887 34.412 145.535 35.153 144.762 35.883 143.567 36.601V36.601L133.563 42.618C132.351 43.347 131.266 43.558 130.307 43.25 129.354 42.939 128.384 41.963 127.396 40.322V40.322L119.559 27.29C118.073 24.82 118.501 22.88 120.844 21.471V21.471L130.848 15.454C132.043 14.735 133.045 14.386 133.854 14.405 134.663 14.423 135.358 14.917 135.941 15.886V15.886C136.485 16.79 136.613 17.574 136.325 18.237 136.036 18.9 135.318 19.577 134.17 20.268V20.268L127.437 24.317ZM149.711 7.261V7.261C152.392 6.279 154.883 5.995 157.181 6.407 159.48 6.819 160.856 7.645 161.31 8.884V8.884C161.435 9.227 161.468 9.543 161.408 9.832 161.348 10.121 161.229 10.355 161.05 10.536 160.871 10.717 160.658 10.853 160.41 10.944V10.944C160.009 11.09 159.326 11.103 158.359 10.981 157.394 10.866 156.339 10.78 155.194 10.724 154.049 10.667 153.057 10.793 152.219 11.1V11.1C150.89 11.586 150.425 12.372 150.823 13.459V13.459C150.947 13.796 151.172 14.077 151.5 14.303 151.828 14.529 152.286 14.718 152.875 14.87 153.473 15.026 154.042 15.145 154.584 15.228 155.12 15.313 155.86 15.416 156.806 15.539 157.748 15.669 158.547 15.795 159.203 15.915V15.915C161.301 16.271 162.865 16.772 163.894 17.419 164.924 18.065 165.652 18.973 166.081 20.142V20.142C167.791 24.813 165.5 28.3 159.209 30.604V30.604C157.97 31.058 156.723 31.374 155.47 31.552 154.222 31.727 153.089 31.771 152.069 31.683 151.05 31.595 150.119 31.425 149.276 31.171 148.428 30.919 147.739 30.595 147.212 30.197 146.686 29.806 146.341 29.384 146.176 28.933V28.933C145.995 28.438 146.002 27.956 146.198 27.487 146.394 27.019 146.81 26.669 147.445 26.436V26.436C147.916 26.264 149.163 26.146 151.186 26.083 153.21 26.019 154.774 25.785 155.88 25.38V25.38C156.897 25.008 157.277 24.472 157.021 23.773V23.773C156.947 23.57 156.837 23.397 156.691 23.256 156.555 23.119 156.359 22.999 156.106 22.897 155.846 22.798 155.572 22.718 155.283 22.658 154.995 22.598 154.6 22.534 154.099 22.465 153.602 22.387 153.103 22.314 152.602 22.245 152.099 22.17 151.445 22.075 150.638 21.959 149.828 21.852 149.042 21.733 148.28 21.601V21.601C147.273 21.429 146.343 21.103 145.49 20.623 144.636 20.142 143.947 19.609 143.423 19.023 142.905 18.434 142.539 17.848 142.324 17.263V17.263C141.631 15.369 141.911 13.515 143.164 11.702 144.414 9.882 146.597 8.402 149.711 7.261ZM176.953 0.512V0.512C179.774 0.07 182.272 0.275 184.447 1.126 186.621 1.978 187.811 3.055 188.015 4.359V4.359C188.071 4.72 188.042 5.036 187.927 5.308 187.812 5.579 187.649 5.786 187.439 5.929 187.228 6.071 186.993 6.163 186.732 6.204V6.204C186.311 6.27 185.638 6.149 184.713 5.842 183.789 5.541 182.771 5.252 181.659 4.974 180.546 4.696 179.549 4.626 178.667 4.765V4.765C177.269 4.984 176.66 5.665 176.839 6.808V6.808C176.895 7.162 177.061 7.482 177.339 7.767 177.616 8.053 178.029 8.327 178.577 8.591 179.133 8.86 179.669 9.088 180.185 9.274 180.693 9.461 181.4 9.707 182.304 10.011 183.202 10.322 183.961 10.601 184.582 10.846V10.846C186.57 11.603 188.007 12.399 188.891 13.233 189.775 14.067 190.314 15.099 190.506 16.33V16.33C191.276 21.244 188.351 24.219 181.732 25.256V25.256C180.428 25.46 179.144 25.528 177.88 25.459 176.622 25.388 175.502 25.211 174.519 24.927 173.536 24.642 172.656 24.294 171.879 23.881 171.095 23.469 170.483 23.017 170.043 22.525 169.604 22.038 169.347 21.558 169.272 21.083V21.083C169.191 20.562 169.292 20.091 169.575 19.669 169.858 19.248 170.334 18.985 171.003 18.881V18.881C171.498 18.803 172.744 18.93 174.741 19.261 176.738 19.592 178.319 19.667 179.482 19.484V19.484C180.552 19.317 181.029 18.865 180.914 18.13V18.13C180.88 17.916 180.806 17.726 180.691 17.559 180.583 17.397 180.415 17.242 180.186 17.093 179.951 16.945 179.697 16.813 179.426 16.698 179.154 16.583 178.78 16.443 178.302 16.279 177.829 16.106 177.354 15.937 176.876 15.772 176.397 15.601 175.774 15.38 175.005 15.11 174.231 14.847 173.484 14.577 172.762 14.3V14.3C171.808 13.936 170.958 13.435 170.215 12.798 169.471 12.161 168.899 11.504 168.498 10.827 168.105 10.149 167.859 9.502 167.763 8.887V8.887C167.451 6.895 168.086 5.131 169.667 3.595 171.248 2.053 173.676 1.025 176.953 0.512ZM224.443 23.193L225.82 13.854 220.025 22.327C219.532 23.027 219.048 23.506 218.572 23.765 218.096 24.023 217.564 24.109 216.974 24.022V24.022C216.211 23.909 215.608 23.547 215.165 22.934 214.721 22.322 214.188 21.255 213.564 19.733V19.733L210.534 11.601 209.049 21.684C208.898 22.709 208.556 23.424 208.024 23.832 207.492 24.239 206.761 24.374 205.83 24.237V24.237C204.786 24.083 204.06 23.74 203.653 23.208 203.245 22.676 203.142 21.73 203.342 20.371V20.371L205.632 4.835C205.901 3.007 206.519 1.692 207.485 0.891 208.459 0.084 209.93-0.175 211.899 0.115V0.115C212.635 0.224 213.26 0.442 213.772 0.771 214.277 1.105 214.643 1.453 214.87 1.815 215.097 2.177 215.306 2.615 215.498 3.128V3.128L218.73 14.266 225.304 4.748C226.44 3.171 228.146 2.55 230.422 2.886V2.886C231.493 3.044 232.383 3.363 233.092 3.844 233.795 4.323 234.306 5.004 234.628 5.886 234.942 6.774 235.008 7.833 234.826 9.065V9.065L232.541 24.571C232.175 26.919 230.519 27.875 227.573 27.441V27.441C226.502 27.283 225.671 26.863 225.081 26.181 224.49 25.499 224.278 24.503 224.443 23.193ZM251.157 15.948V15.948C250.204 15.56 249.387 15.548 248.704 15.913 248.02 16.285 247.387 17.182 246.808 18.604V18.604L245.203 22.543 250.74 24.8 252.372 20.795C252.752 19.861 252.948 19.067 252.958 18.414 252.965 17.752 252.817 17.235 252.516 16.863 252.211 16.498 251.758 16.193 251.157 15.948ZM248.143 31.173L248.863 29.406 243.326 27.15 242.606 28.917C242.144 30.052 241.503 30.763 240.685 31.05 239.872 31.34 238.729 31.185 237.257 30.585V30.585C236.636 30.332 236.161 30.037 235.832 29.698 235.504 29.352 235.276 28.909 235.146 28.366 235.025 27.82 235.054 27.112 235.233 26.242 235.421 25.369 235.71 24.346 236.1 23.175 236.492 21.998 237.045 20.531 237.76 18.777V18.777C238.386 17.241 239.119 15.899 239.959 14.751 240.8 13.603 241.674 12.695 242.582 12.027 243.49 11.359 244.426 10.827 245.392 10.431 246.359 10.029 247.327 9.806 248.295 9.762 249.257 9.715 250.163 9.752 251.013 9.871 251.854 9.995 252.663 10.215 253.44 10.532V10.532C254.374 10.912 255.246 11.417 256.057 12.047 256.861 12.674 257.603 13.488 258.284 14.489 258.969 15.499 259.471 16.606 259.792 17.811 260.118 19.018 260.205 20.446 260.053 22.094 259.898 23.748 259.448 25.487 258.705 27.311V27.311C257.51 30.244 256.519 32.372 255.731 33.695 254.947 35.027 254.192 35.867 253.466 36.214 252.738 36.568 251.85 36.531 250.803 36.105V36.105C249.337 35.507 248.411 34.82 248.027 34.042 247.642 33.264 247.681 32.308 248.143 31.173ZM278.252 23.635V23.635C280.635 25.209 282.344 27.043 283.378 29.137 284.412 31.23 284.565 32.828 283.838 33.929V33.929C283.637 34.234 283.402 34.448 283.134 34.572 282.866 34.695 282.607 34.738 282.355 34.702 282.103 34.665 281.867 34.574 281.647 34.429V34.429C281.291 34.194 280.875 33.651 280.398 32.801 279.918 31.957 279.36 31.058 278.725 30.103 278.09 29.149 277.4 28.425 276.655 27.933V27.933C275.474 27.154 274.566 27.247 273.928 28.212V28.212C273.73 28.512 273.638 28.86 273.651 29.258 273.664 29.656 273.784 30.137 274.012 30.701 274.242 31.274 274.484 31.804 274.74 32.289 274.99 32.77 275.346 33.427 275.81 34.26 276.264 35.095 276.638 35.813 276.931 36.412V36.412C277.891 38.311 278.417 39.867 278.509 41.079 278.601 42.291 278.303 43.417 277.617 44.456V44.456C274.876 48.607 270.71 48.836 265.12 45.144V45.144C264.018 44.417 263.024 43.602 262.136 42.699 261.253 41.8 260.545 40.915 260.009 40.043 259.474 39.17 259.059 38.32 258.762 37.492 258.46 36.66 258.312 35.913 258.319 35.252 258.322 34.597 258.455 34.069 258.72 33.668V33.668C259.011 33.228 259.403 32.947 259.896 32.827 260.389 32.707 260.918 32.833 261.483 33.206V33.206C261.901 33.482 262.736 34.415 263.99 36.004 265.243 37.594 266.361 38.714 267.344 39.363V39.363C268.247 39.959 268.904 39.947 269.314 39.326V39.326C269.434 39.145 269.507 38.954 269.534 38.753 269.563 38.562 269.544 38.334 269.475 38.069 269.401 37.801 269.302 37.533 269.179 37.265 269.055 36.998 268.873 36.642 268.63 36.198 268.398 35.752 268.16 35.308 267.918 34.864 267.679 34.414 267.367 33.831 266.981 33.114 266.586 32.399 266.215 31.695 265.868 31.004V31.004C265.408 30.092 265.118 29.15 264.997 28.179 264.876 27.207 264.896 26.336 265.056 25.566 265.221 24.799 265.476 24.156 265.819 23.636V23.636C266.93 21.954 268.587 21.077 270.791 21.007 272.998 20.932 275.485 21.808 278.252 23.635ZM297.77 48.634L288.674 57.984C287.721 58.964 286.842 59.624 286.038 59.966 285.234 60.307 284.515 60.386 283.881 60.204 283.242 60.016 282.578 59.587 281.889 58.917V58.917C280.87 57.926 280.397 56.937 280.47 55.95 280.542 54.964 281.239 53.777 282.56 52.39V52.39L291.782 42.809 289.585 40.671C288.498 39.614 287.853 38.651 287.65 37.783 287.442 36.91 287.765 36.034 288.619 35.156V35.156C289.138 34.623 289.655 34.305 290.171 34.202 290.686 34.109 291.221 34.204 291.775 34.488 292.335 34.778 292.975 35.274 293.698 35.977V35.977L304.751 46.729C305.711 47.664 306.24 48.513 306.336 49.277 306.433 50.042 306.071 50.846 305.25 51.69V51.69C304.697 52.258 304.139 52.579 303.576 52.653 303.017 52.733 302.475 52.63 301.949 52.346 301.419 52.066 300.826 51.607 300.171 50.97V50.97ZM308.059 67.469L311.583 72.561C312.307 73.607 312.648 74.462 312.605 75.126 312.563 75.78 312.139 76.386 311.332 76.944V76.944C310.659 77.41 310.003 77.49 309.363 77.184 308.732 76.879 308.047 76.193 307.308 75.125V75.125L303.992 70.333 300.854 72.505 305.268 78.956C306.031 80.058 306.418 80.962 306.43 81.67 306.437 82.381 306.026 83.024 305.197 83.598V83.598C304.251 84.252 303.394 84.429 302.627 84.129 301.865 83.825 301.087 83.1 300.294 81.954V81.954L293.651 72.354C292.846 71.191 292.566 70.121 292.812 69.144 293.062 68.173 293.974 67.143 295.549 66.053V66.053L308.054 57.4C310.424 55.759 312.388 56.063 313.943 58.311V58.311L320.586 67.911C321.38 69.057 321.793 70.035 321.826 70.843 321.858 71.652 321.41 72.377 320.481 73.021V73.021C319.613 73.621 318.839 73.799 318.158 73.554 317.478 73.308 316.757 72.635 315.995 71.533V71.533L311.524 65.072ZM324.923 93.284V93.284C325.979 92.827 326.539 92.128 326.603 91.186 326.668 90.243 326.305 88.859 325.514 87.033V87.033L319.794 89.509C320.536 91.223 321.3 92.4 322.086 93.041 322.872 93.682 323.818 93.763 324.923 93.284ZM314.829 91.658L311.624 93.045C308.32 94.474 306.108 93.897 304.99 91.314V91.314C304.429 90.016 304.364 88.912 304.796 88.002 305.231 87.099 306.327 86.267 308.085 85.506V85.506L322.041 79.467C323.32 78.913 324.446 78.839 325.418 79.244 326.387 79.643 327.115 80.405 327.601 81.529V81.529L330.609 88.479C331.781 91.187 332.096 93.654 331.554 95.879 331.01 98.098 329.748 99.636 327.767 100.493V100.493C326.263 101.144 324.954 101.338 323.838 101.076 322.715 100.817 321.656 100.081 320.659 98.868V98.868C321.054 99.951 320.965 101.151 320.392 102.468 319.828 103.789 318.828 104.76 317.393 105.381V105.381C315.94 106.009 314.763 106.357 313.862 106.422 312.959 106.481 312.268 106.316 311.789 105.925 311.302 105.532 310.858 104.872 310.457 103.947V103.947C309.895 102.649 309.753 101.578 310.03 100.736 310.307 99.893 310.995 99.234 312.094 98.759V98.759C313.461 98.167 314.457 97.581 315.083 97.001 315.707 96.414 316.04 95.864 316.084 95.351 316.118 94.834 315.975 94.204 315.652 93.458V93.458ZM78.516 186.44L74.126 187.969C72.586 188.506 71.295 188.576 70.254 188.179 69.21 187.775 68.464 186.928 68.014 185.637V185.637C67.586 184.41 67.622 183.33 68.121 182.397 68.624 181.454 69.758 180.676 71.522 180.062V180.062L85.882 175.059C86.604 174.807 87.268 174.687 87.874 174.698 88.471 174.705 88.993 174.835 89.439 175.088 89.883 175.335 90.258 175.659 90.563 176.062 90.868 176.464 91.12 176.95 91.318 177.519V177.519L95.205 188.677C95.664 189.994 95.801 191.046 95.617 191.834 95.433 192.622 94.807 193.202 93.74 193.573V193.573C92.743 193.921 91.949 193.885 91.36 193.468 90.77 193.05 90.253 192.205 89.81 190.933V190.933L87.192 183.417 83.214 184.803 85.301 190.795C85.512 191.402 85.644 191.933 85.695 192.388 85.752 192.841 85.721 193.235 85.601 193.571 85.473 193.902 85.274 194.172 85.002 194.381 84.731 194.591 84.359 194.778 83.886 194.942V194.942C83.113 195.212 82.462 195.123 81.934 194.676 81.41 194.221 80.931 193.37 80.497 192.124V192.124ZM97.631 202.823L84.015 209.752C82.344 210.602 80.968 210.912 79.886 210.68 78.798 210.452 77.931 209.705 77.287 208.438V208.438C76.657 207.202 76.524 206.119 76.887 205.19 77.249 204.262 78.287 203.361 80 202.49V202.49L93.579 195.578C96.149 194.271 98.049 194.826 99.28 197.245V197.245C99.912 198.487 100.154 199.545 100.006 200.418 99.858 201.29 99.066 202.092 97.631 202.823ZM105.462 217.363L94.829 224.918C93.714 225.71 92.731 226.201 91.878 226.391 91.026 226.582 90.304 226.53 89.713 226.236 89.118 225.936 88.543 225.395 87.986 224.611V224.611C87.163 223.453 86.876 222.395 87.126 221.437 87.375 220.48 88.275 219.438 89.824 218.312V218.312L100.624 210.552 98.848 208.053C97.97 206.817 97.509 205.754 97.466 204.863 97.419 203.967 97.894 203.164 98.893 202.455V202.455C99.5 202.024 100.066 201.804 100.592 201.796 101.116 201.797 101.624 201.988 102.118 202.367 102.616 202.753 103.157 203.356 103.741 204.178V204.178L112.672 216.748C113.448 217.841 113.815 218.772 113.772 219.541 113.729 220.31 113.227 221.036 112.267 221.718V221.718C111.622 222.176 111.015 222.392 110.447 222.364 109.883 222.341 109.369 222.142 108.903 221.767 108.432 221.396 107.932 220.838 107.403 220.094V220.094ZM130.254 237.783L117.913 251.106C117.196 251.881 116.399 252.283 115.524 252.311 114.653 252.335 113.776 251.938 112.892 251.119V251.119C112.664 250.908 112.461 250.669 112.283 250.402 112.101 250.141 111.947 249.819 111.822 249.436 111.698 249.062 111.596 248.724 111.518 248.42 111.439 248.117 111.371 247.703 111.312 247.178 111.263 246.654 111.223 246.238 111.193 245.933 111.162 245.628 111.124 245.146 111.08 244.486 111.04 243.822 111.014 243.337 111.002 243.031V243.031L110.405 233.982 105.093 239.716C104.293 240.58 103.582 241.019 102.96 241.033 102.343 241.052 101.682 240.735 100.977 240.082V240.082C100.202 239.365 99.792 238.657 99.746 237.96 99.705 237.267 100.069 236.506 100.837 235.677V235.677L112.66 222.912C113.589 221.909 114.546 221.389 115.531 221.351 116.516 221.313 117.483 221.734 118.431 222.612V222.612C119.082 223.214 119.511 223.801 119.72 224.373 119.928 224.944 120.062 225.746 120.121 226.778V226.778L120.635 239.638 125.974 233.874C126.677 233.114 127.393 232.721 128.12 232.693 128.846 232.665 129.537 232.954 130.193 233.562V233.562C130.948 234.261 131.33 234.943 131.342 235.608 131.348 236.268 130.985 236.994 130.254 237.783ZM135.85 248.904L141.156 252.095C142.246 252.751 142.908 253.39 143.142 254.013 143.374 254.626 143.237 255.353 142.731 256.194V256.194C142.309 256.895 141.743 257.238 141.034 257.222 140.334 257.204 139.428 256.86 138.314 256.191V256.191L133.321 253.187 131.354 256.458 138.031 260.522C139.179 261.212 139.904 261.878 140.207 262.517 140.505 263.163 140.395 263.918 139.875 264.782V264.782C139.282 265.768 138.574 266.282 137.751 266.324 136.932 266.36 135.925 266.019 134.73 265.301V265.301L124.726 259.284C123.514 258.555 122.819 257.694 122.642 256.703 122.47 255.715 122.877 254.401 123.864 252.759V252.759L131.702 239.728C133.188 237.258 135.102 236.727 137.445 238.136V238.136L147.449 244.153C148.644 244.872 149.423 245.593 149.785 246.316 150.148 247.04 150.038 247.886 149.455 248.854V248.854C148.911 249.759 148.279 250.239 147.558 250.295 146.837 250.351 145.902 250.034 144.754 249.343V249.343L138.021 245.294ZM160.96 249.225V249.225C163.642 250.207 165.727 251.598 167.216 253.397 168.705 255.196 169.222 256.715 168.769 257.954V257.954C168.643 258.298 168.464 258.56 168.232 258.742 167.999 258.923 167.757 259.025 167.503 259.048 167.25 259.07 166.999 259.036 166.752 258.946V258.946C166.351 258.799 165.821 258.367 165.161 257.65 164.499 256.939 163.749 256.192 162.911 255.41 162.074 254.627 161.235 254.083 160.396 253.775V253.775C159.068 253.289 158.205 253.589 157.807 254.676V254.676C157.684 255.013 157.674 255.373 157.779 255.757 157.883 256.142 158.111 256.582 158.463 257.078 158.818 257.583 159.176 258.042 159.537 258.455 159.891 258.866 160.39 259.423 161.033 260.127 161.667 260.835 162.196 261.447 162.62 261.962V261.962C163.992 263.589 164.862 264.981 165.231 266.14 165.6 267.298 165.57 268.462 165.142 269.631V269.631C163.431 274.302 159.43 275.486 153.139 273.182V273.182C151.9 272.728 150.744 272.165 149.672 271.491 148.606 270.82 147.712 270.121 146.991 269.396 146.269 268.67 145.668 267.939 145.189 267.201 144.703 266.461 144.387 265.769 144.241 265.124 144.093 264.486 144.101 263.942 144.267 263.49V263.49C144.448 262.995 144.765 262.631 145.217 262.401 145.669 262.17 146.213 262.171 146.848 262.403V262.403C147.319 262.576 148.347 263.291 149.933 264.549 151.519 265.807 152.865 266.639 153.971 267.044V267.044C154.987 267.416 155.624 267.252 155.88 266.553V266.553C155.954 266.35 155.982 266.147 155.962 265.946 155.946 265.752 155.874 265.535 155.746 265.294 155.612 265.05 155.454 264.812 155.273 264.58 155.091 264.348 154.831 264.043 154.493 263.667 154.164 263.287 153.83 262.909 153.492 262.533 153.157 262.151 152.718 261.655 152.177 261.047 151.628 260.442 151.105 259.843 150.608 259.25V259.25C149.95 258.469 149.45 257.619 149.109 256.702 148.768 255.784 148.586 254.932 148.564 254.145 148.548 253.361 148.648 252.677 148.862 252.092V252.092C149.555 250.199 150.966 248.964 153.094 248.388 155.224 247.806 157.846 248.085 160.96 249.225ZM182.015 254.374V254.374C184.836 254.816 187.152 255.774 188.962 257.25 190.773 258.725 191.576 260.115 191.371 261.418V261.418C191.315 261.779 191.19 262.072 190.998 262.295 190.805 262.518 190.587 262.666 190.343 262.737 190.099 262.808 189.846 262.824 189.586 262.783V262.783C189.164 262.717 188.56 262.396 187.774 261.821 186.986 261.252 186.105 260.666 185.131 260.061 184.157 259.456 183.229 259.085 182.347 258.947V258.947C180.949 258.728 180.161 259.19 179.982 260.333V260.333C179.926 260.688 179.987 261.043 180.164 261.4 180.341 261.756 180.651 262.144 181.092 262.562 181.539 262.988 181.979 263.369 182.413 263.704 182.84 264.038 183.438 264.488 184.206 265.053 184.966 265.625 185.603 266.122 186.119 266.545V266.545C187.781 267.874 188.906 269.071 189.492 270.135 190.079 271.2 190.276 272.347 190.084 273.578V273.578C189.314 278.492 185.62 280.431 179 279.394V279.394C177.697 279.19 176.453 278.861 175.271 278.409 174.095 277.958 173.082 277.446 172.233 276.875 171.384 276.304 170.653 275.703 170.039 275.072 169.419 274.441 168.974 273.823 168.706 273.22 168.436 272.622 168.339 272.087 168.413 271.612V271.612C168.495 271.09 168.735 270.672 169.134 270.358 169.532 270.044 170.066 269.939 170.734 270.044V270.044C171.229 270.121 172.377 270.623 174.177 271.549 175.977 272.475 177.459 273.029 178.623 273.211V273.211C179.693 273.378 180.285 273.094 180.4 272.359V272.359C180.434 272.145 180.421 271.941 180.362 271.747 180.309 271.56 180.197 271.361 180.024 271.149 179.845 270.936 179.644 270.734 179.421 270.541 179.198 270.349 178.884 270.101 178.479 269.798 178.082 269.489 177.681 269.183 177.277 268.88 176.873 268.57 176.347 268.169 175.698 267.677 175.041 267.19 174.412 266.705 173.809 266.22V266.22C173.012 265.581 172.357 264.845 171.843 264.011 171.33 263.177 170.986 262.377 170.812 261.61 170.644 260.844 170.609 260.153 170.705 259.538V259.538C171.017 257.546 172.161 256.06 174.136 255.082 176.112 254.097 178.739 253.861 182.015 254.374ZM225.851 273.567L224.474 264.227 221.371 274.011C221.101 274.824 220.775 275.423 220.394 275.807 220.013 276.192 219.528 276.428 218.938 276.514V276.514C218.175 276.627 217.493 276.454 216.892 275.995 216.291 275.536 215.472 274.669 214.435 273.392V273.392L209.189 266.479 210.675 276.562C210.826 277.587 210.706 278.371 210.314 278.914 209.922 279.457 209.26 279.798 208.33 279.935V279.935C207.285 280.089 206.491 279.97 205.948 279.578 205.405 279.186 205.033 278.31 204.832 276.951V276.951L202.543 261.415C202.274 259.587 202.486 258.15 203.18 257.104 203.88 256.05 205.214 255.378 207.182 255.088V255.088C207.919 254.979 208.58 255.009 209.165 255.175 209.745 255.35 210.196 255.578 210.518 255.858 210.84 256.139 211.166 256.498 211.497 256.935V256.935L217.805 266.667 221.354 255.657C221.987 253.82 223.441 252.733 225.717 252.398V252.398C226.788 252.24 227.733 252.289 228.55 252.544 229.361 252.801 230.048 253.305 230.61 254.057 231.167 254.817 231.536 255.812 231.717 257.044V257.044L234.002 272.55C234.328 274.903 233.018 276.297 230.073 276.731V276.731C229.001 276.889 228.085 276.726 227.323 276.243 226.561 275.761 226.07 274.868 225.851 273.567ZM243.439 252.319V252.319C242.486 252.707 241.893 253.27 241.661 254.008 241.43 254.752 241.605 255.835 242.185 257.258V257.258L243.79 261.197 249.327 258.941 247.695 254.936C247.315 254.002 246.9 253.298 246.451 252.823 245.993 252.345 245.526 252.078 245.05 252.024 244.578 251.975 244.04 252.073 243.439 252.319ZM251.924 265.315L251.204 263.547 245.667 265.803 246.387 267.571C246.849 268.705 246.888 269.661 246.503 270.439 246.125 271.214 245.199 271.902 243.726 272.502V272.502C243.106 272.755 242.559 272.875 242.087 272.863 241.612 272.845 241.138 272.687 240.666 272.39 240.198 272.084 239.724 271.557 239.244 270.81 238.768 270.054 238.26 269.121 237.72 268.011 237.177 266.895 236.549 265.459 235.834 263.704V263.704C235.208 262.169 234.795 260.697 234.593 259.288 234.392 257.879 234.383 256.619 234.565 255.507 234.748 254.394 235.046 253.359 235.46 252.402 235.871 251.438 236.407 250.602 237.069 249.894 237.724 249.188 238.397 248.581 239.089 248.073 239.777 247.573 240.51 247.165 241.287 246.849V246.849C242.221 246.468 243.197 246.22 244.217 246.104 245.23 245.991 246.331 246.054 247.517 246.294 248.713 246.538 249.846 246.979 250.917 247.616 251.994 248.252 253.054 249.212 254.097 250.497 255.142 251.789 256.036 253.346 256.779 255.17V255.17C257.974 258.103 258.752 260.318 259.114 261.815 259.484 263.316 259.531 264.444 259.254 265.2 258.98 265.962 258.32 266.556 257.273 266.983V266.983C255.806 267.58 254.664 267.735 253.845 267.448 253.026 267.16 252.386 266.449 251.924 265.315ZM260.224 236.272V236.272C262.607 234.698 264.965 233.847 267.296 233.718 269.628 233.59 271.158 234.076 271.885 235.177V235.177C272.086 235.482 272.191 235.782 272.199 236.077 272.207 236.372 272.145 236.627 272.013 236.845 271.88 237.062 271.704 237.243 271.484 237.388V237.388C271.128 237.623 270.466 237.793 269.497 237.898 268.531 238.008 267.485 238.168 266.358 238.377 265.231 238.586 264.295 238.936 263.549 239.429V239.429C262.369 240.208 262.097 241.08 262.735 242.046V242.046C262.933 242.345 263.217 242.567 263.588 242.712 263.959 242.856 264.449 242.934 265.057 242.946 265.674 242.96 266.256 242.945 266.803 242.9 267.343 242.86 268.088 242.79 269.036 242.691 269.983 242.601 270.789 242.539 271.456 242.504V242.504C273.579 242.367 275.216 242.494 276.367 242.886 277.518 243.278 278.436 243.993 279.122 245.032V245.032C281.863 249.183 280.438 253.105 274.847 256.796V256.796C273.746 257.524 272.606 258.118 271.427 258.58 270.254 259.039 269.161 259.343 268.149 259.492 267.136 259.642 266.191 259.69 265.313 259.637 264.429 259.588 263.684 259.431 263.079 259.166 262.478 258.906 262.045 258.576 261.78 258.175V258.175C261.489 257.734 261.385 257.264 261.468 256.763 261.551 256.262 261.875 255.825 262.44 255.452V255.452C262.858 255.176 264.044 254.774 265.998 254.246 267.953 253.718 269.421 253.129 270.404 252.48V252.48C271.307 251.884 271.554 251.275 271.144 250.654V250.654C271.024 250.473 270.878 250.33 270.704 250.226 270.539 250.124 270.321 250.053 270.051 250.012 269.776 249.976 269.49 249.961 269.196 249.969 268.901 249.977 268.502 250.006 267.999 250.054 267.497 250.093 266.995 250.137 266.492 250.185 265.985 250.228 265.326 250.286 264.515 250.36 263.701 250.442 262.909 250.507 262.137 250.555V250.555C261.118 250.62 260.138 250.517 259.197 250.246 258.256 249.976 257.462 249.615 256.817 249.166 256.177 248.713 255.685 248.226 255.342 247.707V247.707C254.231 246.024 254.076 244.155 254.877 242.102 255.674 240.042 257.457 238.099 260.224 236.272ZM284.003 224.423L293.099 233.773C294.052 234.753 294.688 235.649 295.007 236.462 295.326 237.276 295.386 237.997 295.186 238.626 294.981 239.259 294.534 239.911 293.845 240.581V240.581C292.826 241.572 291.825 242.018 290.84 241.918 289.856 241.819 288.689 241.089 287.338 239.731V239.731L278.014 230.249 275.817 232.387C274.731 233.444 273.751 234.062 272.877 234.241 271.999 234.425 271.132 234.079 270.278 233.201V233.201C269.759 232.667 269.455 232.141 269.367 231.623 269.288 231.105 269.398 230.573 269.697 230.027 270.002 229.476 270.515 228.849 271.238 228.146V228.146L282.29 217.393C283.251 216.459 284.114 215.954 284.881 215.878 285.648 215.802 286.442 216.187 287.263 217.031V217.031C287.815 217.598 288.121 218.165 288.18 218.73 288.244 219.291 288.127 219.83 287.828 220.348 287.533 220.87 287.059 221.45 286.404 222.087V222.087ZM298.101 212.849L301.625 207.757C302.349 206.71 303.029 206.09 303.665 205.897 304.292 205.705 305.008 205.888 305.815 206.447V206.447C306.489 206.913 306.795 207.499 306.734 208.206 306.671 208.903 306.27 209.786 305.53 210.854V210.854L302.215 215.646 305.353 217.818 309.835 211.413C310.597 210.311 311.307 209.63 311.965 209.369 312.628 209.112 313.375 209.271 314.204 209.845V209.845C315.15 210.499 315.618 211.239 315.607 212.062 315.591 212.883 315.186 213.866 314.393 215.012V215.012L307.75 224.612C306.945 225.775 306.042 226.413 305.042 226.527 304.045 226.636 302.759 226.145 301.184 225.055V225.055L288.68 216.402C286.309 214.761 285.902 212.817 287.457 210.569V210.569L294.1 200.969C294.894 199.823 295.663 199.092 296.408 198.776 297.153 198.461 297.99 198.624 298.92 199.268V199.268C299.788 199.868 300.227 200.53 300.237 201.253 300.247 201.976 299.871 202.888 299.108 203.99V203.99L294.637 210.451ZM308.518 186.825V186.825C307.462 186.368 306.568 186.439 305.838 187.037 305.107 187.635 304.346 188.847 303.556 190.673V190.673L309.276 193.149C310.018 191.434 310.354 190.072 310.283 189.06 310.211 188.049 309.623 187.304 308.518 186.825ZM314.242 195.297L317.447 196.684C320.751 198.114 321.844 200.121 320.726 202.705V202.705C320.164 204.003 319.404 204.806 318.445 205.113 317.489 205.415 316.132 205.185 314.374 204.425V204.425L300.418 198.385C299.139 197.831 298.314 197.062 297.944 196.076 297.572 195.096 297.629 194.044 298.115 192.92V192.92L301.123 185.97C302.295 183.262 303.877 181.344 305.87 180.215 307.86 179.093 309.845 178.96 311.827 179.818V179.818C313.33 180.468 314.368 181.29 314.941 182.282 315.52 183.278 315.709 184.554 315.507 186.111V186.111C316.026 185.082 316.962 184.326 318.315 183.842 319.663 183.349 321.055 183.413 322.49 184.034V184.034C323.943 184.663 325.002 185.283 325.666 185.895 326.328 186.513 326.68 187.13 326.724 187.746 326.77 188.371 326.593 189.146 326.193 190.072V190.072C325.631 191.37 324.948 192.206 324.145 192.581 323.341 192.956 322.389 192.906 321.29 192.43V192.43C319.924 191.838 318.814 191.513 317.963 191.454 317.108 191.402 316.479 191.535 316.075 191.854 315.675 192.183 315.314 192.719 314.991 193.465V193.465ZM60.331 143.604C60.331 138.346 64.593 134.084 69.851 134.084 75.109 134.084 79.372 138.346 79.372 143.604 79.372 148.863 75.109 153.125 69.851 153.125 64.593 153.125 60.331 148.863 60.331 143.604ZM316.148 143.604C316.148 138.346 320.411 134.084 325.669 134.084 330.927 134.084 335.189 138.346 335.189 143.604 335.189 148.863 330.927 153.125 325.669 153.125 320.411 153.125 316.148 148.863 316.148 143.604Z" fill="#000000" data-fill-palette-color="primary"></path></svg></g></svg></g></svg></g></svg></g><defs></defs></svg><rect width="395.52" height="280" fill="none" stroke="none" visibility="hidden"></rect></g></svg></g></svg>